# xmcd CD database file
#
# Track frame offsets:
#	150
#	17961
#	37071
#	51834
#
# Disc length: 1021 seconds
#
# Revision: 2
# Processed by: cddbd v1.5.2PL0 Copyright (c) Steve Scherf et al.
# Submitted via: CDex 1.70beta3
#
DISCID=3103fb04
DTITLE=ZIGGY - それゆけ！R&R BAND～REVISITED
DYEAR=1989
DGENRE=J-Rock
TTITLE0=それゆけ！R&Rバンド
TTITLE1=I CAN' T STOP DANCIN'
TTITLE2=FEELIN' SATISFIED
TTITLE3=BURNIN' LOVE
EXTD=YEAR: 1989
EXTT0=
EXTT1=
EXTT2=
EXTT3=
PLAYORDER=
